<?xml version="1.0" encoding="UTF-8" standalone="no"?>
<svg
   width="90"
   height="90"
   viewBox="0 0 90 90"
   fill="none"
   version="1.1"
   id="svg6"
   sodipodi:docname="icon.svg"
   inkscape:version="1.2.2 (b0a8486541, 2022-12-01)"
   xml:space="preserve"
   xmlns:inkscape="http://www.inkscape.org/namespaces/inkscape"
   xmlns:sodipodi="http://sodipodi.sourceforge.net/DTD/sodipodi-0.dtd"
   xmlns="http://www.w3.org/2000/svg"
   xmlns:svg="http://www.w3.org/2000/svg"><defs
     id="defs10" /><sodipodi:namedview
     id="namedview8"
     pagecolor="#ffffff"
     bordercolor="#000000"
     borderopacity="0.25"
     inkscape:showpageshadow="2"
     inkscape:pageopacity="0.0"
     inkscape:pagecheckerboard="0"
     inkscape:deskcolor="#d1d1d1"
     showgrid="false"
     inkscape:zoom="4"
     inkscape:cx="19.375"
     inkscape:cy="22.875"
     inkscape:window-width="1920"
     inkscape:window-height="1051"
     inkscape:window-x="-9"
     inkscape:window-y="-9"
     inkscape:window-maximized="1"
     inkscape:current-layer="svg6" /><path
     d="m 0,9.999998 c 0,-5.52285 4.47715,-10 10,-10 h 70 c 5.5229,0 10,4.47715 10,10 v 70.000004 c 0,5.5229 -4.4771,10 -10,10 H 10 c -5.52285,0 -10,-4.4771 -10,-10 z"
     fill="#ff4405"
     id="path2"
     style="display:none" /><path
     d="M 27,14.999998 H 15 v 60.000004 h 12 v -24 h 24 l 12,24 h 12 v -12 h -6 l -4.01,-8.0199 c -1.2196,-2.4393 -3.7127,-3.9801 -6.4398,-3.9801 H 51 v -12 h 7.5502 c 2.7271,0 5.2202,-1.5408 6.4398,-3.9801 l 4.01,-8.0199 h 6 V 14.999998 H 63 L 51,39.000002 H 27 Z"
     fill="#101828"
     id="path4"
     style="display:none" /><rect
     style="display:inline;fill:#990000;fill-opacity:1;stroke-width:36.4906"
     id="rect8185-4"
     width="90"
     height="90"
     x="0"
     y="0" /><path
     fill="#ffffff"
     d="M 48.789625,78.599719 V 67.201734 h 4.44764 l 0.30313,-0.429956 -11.11751,-17.84905 -8.89386,8.386908 v 8.601885 l 0.20208,0.430303 6.56954,2.365448 V 78.59937 H 10.889495 V 67.201385 h 5.96293 l 0.30382,-0.429954 V 24.410076 l -0.20244,-0.430304 -6.46883,-2.687044 v -9.892447 h 29.71427 v 11.397637 h -6.36709 l -0.30313,0.428911 V 44.62318 l 21.42597,-20.752116 v -0.428213 l -3.33546,-1.075584 -3.33512,-1.074539 v -9.892447 h 30.8247 v 11.397637 h -4.04206 l -1.01078,0.322293 -20.21241,17.74069 18.09086,25.05062 0.60591,0.538314 6.97439,2.257437 v 9.892098 h -30.7254 z"
     id="path11721-1"
     style="stroke-width:0.348423" /></svg>
